<?xml version="1.0" encoding="UTF-8"?>
<svg xmlns="http://www.w3.org/2000/svg" id="Layer_1" version="1.1" viewBox="0 0 200 200">
  <defs>
    <style>
      .st0 {
        fill: #1e1e23;
      }
    </style>
  </defs>
  <path class="st0" d="M43.9,103.9c0,1-.1,1.9-.4,2.7-.3.8-.7,1.4-1.2,1.8-.5.4-1.3.7-2.1.7s-1.3-.2-1.7-.5-.6-.8-.6-1.3.2-.9.5-1.4c.3-.4.7-.9,1.2-1.4s.9-1,1.4-1.6c.4-.6.8-1.2,1.1-1.9s.5-1.5.5-2.4-.3-2.1-.8-3-1.3-1.6-2.3-2.1c-1-.5-2.1-.8-3.5-.8s-2.7.2-3.7.7-1.7,1.1-2.3,1.8c-.6.8-1,1.6-1.4,2.6-.3,1-.6,2-.8,3s-.3,2-.5,3c-.1,1-.3,1.8-.5,2.6-.2.8-.5,1.4-1,1.8-.4.5-1,.7-1.7.7s-1.3-.2-1.6-.6-.5-.9-.5-1.5.2-1.3.6-1.9c.4-.7.8-1.4,1.4-2.1.5-.8,1.1-1.5,1.6-2.3.5-.8,1-1.6,1.4-2.5s.5-1.7.5-2.6c0-1.8-.5-3.2-1.6-4.2s-2.5-1.5-4.4-1.5h-3.6v4.7h2.3c.8,0,1.3.2,1.6.5.3.4.5.8.5,1.4s-.2,1.1-.6,1.7c-.4.6-.8,1.3-1.4,2s-1.1,1.5-1.6,2.3-1,1.7-1.4,2.6c-.4.9-.5,1.8-.5,2.8s.3,2.3.9,3.2,1.3,1.5,2.3,2,2.1.7,3.3.7,2.7-.2,3.7-.7,1.8-1.1,2.4-1.8c.6-.8,1.1-1.6,1.4-2.6.3-1,.6-1.9.8-3,.2-1,.4-2,.5-3s.3-1.8.6-2.6.6-1.4,1-1.8c.4-.5,1-.7,1.8-.7s1.1.2,1.4.5c.3.3.5.7.5,1.2s-.2,1-.5,1.5c-.3.5-.7.9-1.1,1.4-.4.5-.9,1-1.4,1.6-.5.6-.8,1.2-1.1,1.9-.3.7-.5,1.5-.5,2.4s.3,1.9.8,2.8c.5.9,1.4,1.6,2.5,2.2,1.1.6,2.6.8,4.3.8s3.1-.3,4.4-1c1.3-.7,2.3-1.7,3-3.1s1.1-3,1.1-5v-16.4h-5.1v15.9h0Z"></path>
  <path class="st0" d="M65,96.2c-1.4-.8-3.1-1.3-4.9-1.3s-3.5.4-4.9,1.3c-1.5.8-2.6,2-3.4,3.4-.8,1.4-1.2,3-1.2,4.7s.4,3.3,1.2,4.7,2,2.5,3.4,3.4c1.5.8,3.1,1.3,4.9,1.3s3.5-.4,4.9-1.3c1.4-.8,2.6-2,3.4-3.4.8-1.4,1.2-3,1.2-4.7s-.4-3.3-1.2-4.7c-.8-1.4-2-2.5-3.4-3.4ZM64.2,106.9c-.4.8-1,1.4-1.7,1.9s-1.5.7-2.5.7-1.8-.2-2.5-.7-1.3-1.1-1.7-1.9c-.4-.8-.6-1.6-.6-2.6s.2-1.8.6-2.6c.4-.8,1-1.4,1.7-1.9.7-.5,1.5-.7,2.5-.7s1.8.2,2.5.7,1.3,1.1,1.7,1.9.6,1.6.6,2.6-.2,1.8-.6,2.6Z"></path>
  <rect class="st0" x="71.1" y="88" width="4.9" height="25.3"></rect>
  <path class="st0" d="M93.6,89.5c-1,1-1.5,2.4-1.5,4.2v1.7h-6v-1.5c0-.7.1-1.2.4-1.5.3-.3.8-.4,1.5-.4h2.7v-3.9h-3.9c-1.8,0-3.2.5-4.1,1.5-1,1-1.5,2.4-1.5,4.2v1.7h-3.7v4h3.7v13.9h4.9v-13.9h6v13.9h4.9v-13.9h4.6v-4h-4.6v-1.5c0-.7.1-1.2.4-1.5.3-.3.8-.4,1.5-.4h2.7v-3.9h-3.9c-1.8,0-3.2.5-4.1,1.5Z"></path>
  <path class="st0" d="M132.3,91.4c-1.2-1.2-2.6-2.1-4.2-2.8-1.6-.7-3.3-1-5.1-1s-3.6.3-5.2,1c-1.6.7-3,1.6-4.2,2.8s-2.2,2.6-2.8,4.1c-.7,1.6-1,3.3-1,5.1s.3,3.5,1,5.1c.7,1.6,1.6,3,2.8,4.2s2.6,2.1,4.2,2.8c1.6.7,3.4,1,5.2,1s3.5-.3,5.1-1c1.6-.7,3-1.6,4.2-2.8,1.2-1.2,2.2-2.6,2.8-4.2s1-3.3,1-5.1-.3-3.5-1-5.1c-.7-1.6-1.6-2.9-2.8-4.1ZM129.6,104.8c-.7,1.2-1.6,2.2-2.8,2.9-1.2.7-2.5,1.1-3.9,1.1s-2.7-.4-3.9-1.1c-1.2-.7-2.1-1.7-2.8-2.9s-1-2.6-1-4.2.3-3,1-4.2,1.6-2.2,2.8-2.9c1.2-.7,2.5-1.1,3.9-1.1s2.7.4,3.9,1.1c1.2.7,2.1,1.7,2.8,2.9s1,2.6,1,4.2c0,1.6-.3,3-1,4.2Z"></path>
  <rect class="st0" x="137.8" y="88" width="4.9" height="25.3"></rect>
  <rect class="st0" x="144.6" y="88" width="5.1" height="4.8"></rect>
  <rect class="st0" x="144.6" y="95.4" width="4.9" height="17.9"></rect>
  <path class="st0" d="M165,95.9c-1-.6-2.1-.9-3.4-.9-1.9,0-3.5.6-4.7,1.8-.2.2-.4.5-.6.8v-2.2h-4.8v17.9h4.8v-10.3c0-1.3.3-2.3.9-3.1.6-.8,1.5-1.1,2.6-1.1s1.9.3,2.5,1c.6.7.9,1.7.9,3.1v10.3h4.8v-11.3c0-1.3-.3-2.5-.8-3.6-.5-1.1-1.3-1.9-2.3-2.5Z"></path>
  <path class="st0" d="M184.6,104.8c-.5-.7-1.2-1.2-2.1-1.5s-1.7-.6-2.7-.8c-.9-.2-1.8-.3-2.7-.5-.8-.1-1.5-.3-2.1-.6s-.8-.6-.8-1.2.3-1,.8-1.3c.5-.3,1.1-.5,1.9-.5,1.1,0,1.9.2,2.5.7.6.4.9,1,1.1,1.6h4.5c-.3-1.9-1.2-3.4-2.7-4.4-1.4-1-3.2-1.5-5.4-1.5s-2.7.2-3.8.7c-1.1.5-2,1.1-2.7,2s-1,1.9-1,3.1.3,2.1.8,2.8c.5.7,1.2,1.2,2.1,1.6.8.4,1.7.6,2.7.8.9.2,1.8.3,2.7.5.8.1,1.5.3,2.1.6.5.3.8.6.8,1.2s-.3,1-.8,1.3c-.5.3-1.3.5-2.1.5s-2-.2-2.6-.6c-.6-.4-1-1-1.1-1.7h-4.5c.3,1.9,1.2,3.4,2.7,4.4,1.5,1,3.3,1.5,5.5,1.5s2.8-.2,3.9-.7,2.1-1.2,2.8-2.1,1-2,1-3.2c0-1.2-.3-2.1-.8-2.8Z"></path>
</svg>
